<?xml version="1.0" encoding="UTF-8" standalone="no"?>
<svg xmlns="http://www.w3.org/2000/svg" height="72" version="1.1" viewBox="0 0 355 72" width="355">
   <path d="M179,35 H239" fill="none" stroke="#000000" stroke-linecap="square" stroke-width="3"/>
   <path d="M269,35 H299" fill="none" stroke="#000000" stroke-linecap="square" stroke-width="3"/>
   <path d="M20,6 H44 L54,15 L44,24 H20 Z" fill="none" stroke="#000000" stroke-linecap="square" stroke-width="2"/>
   <text fill="#000000" font-family="monospace" font-size="12" x="25" y="22">x1</text>
   <text fill="#000000" font-family="sans-serif" font-size="16" font-weight="bold" x="6" y="23">A</text>
   <circle cx="59" cy="15" fill="#000000" r="2" stroke="none" stroke-width="2"/>
   <path d="M20,46 H44 L54,55 L44,64 H20 Z" fill="none" stroke="#000000" stroke-linecap="square" stroke-width="2"/>
   <text fill="#000000" font-family="monospace" font-size="12" x="25" y="62">x1</text>
   <text fill="#000000" font-family="sans-serif" font-size="16" font-weight="bold" x="5" y="63">B</text>
   <circle cx="59" cy="55" fill="#000000" r="2" stroke="none" stroke-width="2"/>
   <path d="M303,35 H300" fill="none" stroke="#000000" stroke-linecap="square" stroke-width="3"/>
   <path d="M305,26 H329 L339,35 L329,44 H305 Z" fill="none" stroke="#000000" stroke-linecap="square" stroke-width="2"/>
   <text fill="#000000" font-family="monospace" font-size="12" x="305" y="42">x1</text>
   <text fill="#000000" font-family="sans-serif" font-size="16" font-weight="bold" x="341" y="43">Z</text>
   <circle cx="299" cy="35" fill="#000000" r="2" stroke="none" stroke-width="2"/>
   <path d="M54,15 H119" fill="none" stroke="#000000" stroke-linecap="square" stroke-width="3"/>
   <path d="M54,55 H119" fill="none" stroke="#000000" stroke-linecap="square" stroke-width="3"/>
   <path d="M169,35 Q149,10 119,10 Q132,35 119,60 Q149,60 169,35 Z" fill="none" stroke="#000000" stroke-linecap="square" stroke-width="2"/>
   <circle cx="174" cy="35" fill="none" r="4.5" stroke="#000000" stroke-width="2"/>
   <path d="M259,35 L240,28 V42 L259,35" fill="none" stroke="#000000" stroke-linecap="square" stroke-width="2"/>
   <circle cx="264" cy="35" fill="none" r="4.5" stroke="#000000" stroke-width="2"/>
   <circle cx="269" cy="35" fill="#000000" r="2" stroke="none" stroke-width="2"/>
   <circle cx="239" cy="35" fill="#000000" r="2" stroke="none" stroke-width="2"/>
</svg>
