<?xml version="1.0" encoding="UTF-8" standalone="no"?>
<svg xmlns="http://www.w3.org/2000/svg" height="72" version="1.1" viewBox="0 0 205 72" width="205">
   <path d="M84,60 A25,25 90 0,0 84,10" fill="none" stroke="#000000" stroke-width="2"/>
   <path d="M84,10 H60 V60 H84" fill="none" stroke="#000000" stroke-linecap="square" stroke-width="2"/>
   <circle cx="114" cy="35" fill="none" r="4.5" stroke="#000000" stroke-width="2"/>
   <path d="M139,35 L120,28 V42 L139,35" fill="none" stroke="#000000" stroke-linecap="square" stroke-width="2"/>
   <circle cx="144" cy="35" fill="none" r="4.5" stroke="#000000" stroke-width="2"/>
   <circle cx="119" cy="35" fill="#000000" r="2" stroke="none" stroke-width="2"/>
   <path d="M54,15 H59" fill="none" stroke="#000000" stroke-linecap="square" stroke-width="3"/>
   <path d="M20,6 H44 L54,15 L44,24 H20 Z" fill="none" stroke="#000000" stroke-linecap="square" stroke-width="2"/>
   <text fill="#000000" font-family="monospace" font-size="12" x="25" y="22">x1</text>
   <text fill="#000000" font-family="sans-serif" font-size="16" font-weight="bold" x="6" y="23">A</text>
   <circle cx="59" cy="15" fill="#000000" r="2" stroke="none" stroke-width="2"/>
   <path d="M54,35 H59" fill="none" stroke="#000000" stroke-linecap="square" stroke-width="3"/>
   <path d="M20,26 H44 L54,35 L44,44 H20 Z" fill="none" stroke="#000000" stroke-linecap="square" stroke-width="2"/>
   <text fill="#000000" font-family="monospace" font-size="12" x="25" y="42">x1</text>
   <text fill="#000000" font-family="sans-serif" font-size="16" font-weight="bold" x="5" y="43">B</text>
   <circle cx="59" cy="35" fill="#000000" r="2" stroke="none" stroke-width="2"/>
   <path d="M54,55 H59" fill="none" stroke="#000000" stroke-linecap="square" stroke-width="3"/>
   <path d="M20,46 H44 L54,55 L44,64 H20 Z" fill="none" stroke="#000000" stroke-linecap="square" stroke-width="2"/>
   <text fill="#000000" font-family="monospace" font-size="12" x="25" y="62">x1</text>
   <text fill="#000000" font-family="sans-serif" font-size="16" font-weight="bold" x="5" y="63">C</text>
   <circle cx="59" cy="55" fill="#000000" r="2" stroke="none" stroke-width="2"/>
   <path d="M153,35 H150" fill="none" stroke="#000000" stroke-linecap="square" stroke-width="3"/>
   <path d="M155,26 H179 L189,35 L179,44 H155 Z" fill="none" stroke="#000000" stroke-linecap="square" stroke-width="2"/>
   <text fill="#000000" font-family="monospace" font-size="12" x="155" y="42">x1</text>
   <text fill="#000000" font-family="sans-serif" font-size="16" font-weight="bold" x="191" y="43">Z</text>
   <circle cx="149" cy="35" fill="#000000" r="2" stroke="none" stroke-width="2"/>
</svg>
