<?xml version="1.0" encoding="UTF-8" standalone="no"?>
<svg xmlns="http://www.w3.org/2000/svg" height="72" version="1.1" viewBox="0 0 175 72" width="175">
   <path d="M84,60 A25,25 90 0,0 84,10" fill="none" stroke="#000000" stroke-width="2"/>
   <path d="M84,10 H60 V60 H84" fill="none" stroke="#000000" stroke-linecap="square" stroke-width="2"/>
   <circle cx="114" cy="35" fill="none" r="4.5" stroke="#000000" stroke-width="2"/>
   <path d="M54,15 H59" fill="none" stroke="#000000" stroke-linecap="square" stroke-width="3"/>
   <path d="M20,6 H44 L54,15 L44,24 H20 Z" fill="none" stroke="#000000" stroke-linecap="square" stroke-width="2"/>
   <text fill="#000000" font-family="monospace" font-size="12" x="25" y="22">x1</text>
   <text fill="#000000" font-family="sans-serif" font-size="16" font-weight="bold" x="6" y="23">A</text>
   <circle cx="59" cy="15" fill="#000000" r="2" stroke="none" stroke-width="2"/>
   <path d="M54,55 H59" fill="none" stroke="#000000" stroke-linecap="square" stroke-width="3"/>
   <path d="M20,46 H44 L54,55 L44,64 H20 Z" fill="none" stroke="#000000" stroke-linecap="square" stroke-width="2"/>
   <text fill="#000000" font-family="monospace" font-size="12" x="25" y="62">x1</text>
   <text fill="#000000" font-family="sans-serif" font-size="16" font-weight="bold" x="5" y="63">B</text>
   <circle cx="59" cy="55" fill="#000000" r="2" stroke="none" stroke-width="2"/>
   <path d="M123,35 H120" fill="none" stroke="#000000" stroke-linecap="square" stroke-width="3"/>
   <path d="M125,26 H149 L159,35 L149,44 H125 Z" fill="none" stroke="#000000" stroke-linecap="square" stroke-width="2"/>
   <text fill="#000000" font-family="monospace" font-size="12" x="125" y="42">x1</text>
   <text fill="#000000" font-family="sans-serif" font-size="16" font-weight="bold" x="161" y="43">Z</text>
   <circle cx="119" cy="35" fill="#000000" r="2" stroke="none" stroke-width="2"/>
</svg>
