<?xml version="1.0" encoding="UTF-8" standalone="no"?>
<svg xmlns="http://www.w3.org/2000/svg" height="72" version="1.1" viewBox="0 0 255 72" width="255">
   <path d="M149,35 H159" fill="none" stroke="#000000" stroke-linecap="square" stroke-width="3"/>
   <path d="M189,35 H199" fill="none" stroke="#000000" stroke-linecap="square" stroke-width="3"/>
   <path d="M139,35 Q119,10 89,10 Q102,35 89,60 Q119,60 139,35 Z" fill="none" stroke="#000000" stroke-linecap="square" stroke-width="2"/>
   <circle cx="144" cy="35" fill="none" r="4.5" stroke="#000000" stroke-width="2"/>
   <path d="M54,15 H89" fill="none" stroke="#000000" stroke-linecap="square" stroke-width="3"/>
   <path d="M20,6 H44 L54,15 L44,24 H20 Z" fill="none" stroke="#000000" stroke-linecap="square" stroke-width="2"/>
   <text fill="#000000" font-family="monospace" font-size="12" x="25" y="22">x1</text>
   <text fill="#000000" font-family="sans-serif" font-size="16" font-weight="bold" x="6" y="23">A</text>
   <circle cx="59" cy="15" fill="#000000" r="2" stroke="none" stroke-width="2"/>
   <path d="M54,55 H89" fill="none" stroke="#000000" stroke-linecap="square" stroke-width="3"/>
   <path d="M20,46 H44 L54,55 L44,64 H20 Z" fill="none" stroke="#000000" stroke-linecap="square" stroke-width="2"/>
   <text fill="#000000" font-family="monospace" font-size="12" x="25" y="62">x1</text>
   <text fill="#000000" font-family="sans-serif" font-size="16" font-weight="bold" x="5" y="63">B</text>
   <circle cx="59" cy="55" fill="#000000" r="2" stroke="none" stroke-width="2"/>
   <path d="M179,35 L160,28 V42 L179,35" fill="none" stroke="#000000" stroke-linecap="square" stroke-width="2"/>
   <circle cx="184" cy="35" fill="none" r="4.5" stroke="#000000" stroke-width="2"/>
   <circle cx="189" cy="35" fill="#000000" r="2" stroke="none" stroke-width="2"/>
   <circle cx="159" cy="35" fill="#000000" r="2" stroke="none" stroke-width="2"/>
   <path d="M203,35 H200" fill="none" stroke="#000000" stroke-linecap="square" stroke-width="3"/>
   <path d="M205,26 H229 L239,35 L229,44 H205 Z" fill="none" stroke="#000000" stroke-linecap="square" stroke-width="2"/>
   <text fill="#000000" font-family="monospace" font-size="12" x="205" y="42">x1</text>
   <text fill="#000000" font-family="sans-serif" font-size="16" font-weight="bold" x="241" y="43">Z</text>
   <circle cx="199" cy="35" fill="#000000" r="2" stroke="none" stroke-width="2"/>
</svg>
